<svg width="640" height="640" viewBox="0 0 640 640" fill="none" xmlns="http://www.w3.org/2000/svg">
  <defs>
    <linearGradient id="g1" x1="0" y1="0" x2="1" y2="1">
      <stop offset="0%" stop-color="#22d3ee" stop-opacity="0.9"/>
      <stop offset="100%" stop-color="#0b1220" stop-opacity="0"/>
    </linearGradient>
    <linearGradient id="g2" x1="1" y1="0" x2="0" y2="1">
      <stop offset="0%" stop-color="#f97316" stop-opacity="0.75"/>
      <stop offset="100%" stop-color="#0b1220" stop-opacity="0"/>
    </linearGradient>
  </defs>
  <rect width="640" height="640" fill="#0c1424"/>
  <g opacity="0.55">
    <path d="M40 120h560M40 200h560M40 280h560M40 360h560M40 440h560M40 520h560" stroke="#1f2940" stroke-width="1.2"/>
    <path d="M120 40v560M200 40v560M280 40v560M360 40v560M440 40v560M520 40v560" stroke="#1f2940" stroke-width="1.2"/>
  </g>
  <circle cx="190" cy="180" r="120" fill="url(#g1)"/>
  <circle cx="460" cy="430" r="150" fill="url(#g2)"/>
  <circle cx="360" cy="260" r="90" fill="rgba(255,255,255,0.02)" stroke="#22d3ee" stroke-opacity="0.5"/>
  <circle cx="260" cy="380" r="60" fill="rgba(255,255,255,0.02)" stroke="#f97316" stroke-opacity="0.45"/>
</svg>